<?xml version="1.0" encoding="utf-8" ?>
<svg baseProfile="full" height="800" version="1.1" width="1000" xmlns="http://www.w3.org/2000/svg" xmlns:ev="http://www.w3.org/2001/xml-events" xmlns:xlink="http://www.w3.org/1999/xlink"><defs /><polygon fill="#FF0000" opacity="0.7" points="20.0,220.0 180.0,220.0 180.0,380.0 20.0,380.0" stroke="#000000" /><polygon fill="#FF0000" opacity="0.7" points="103.43145750507618,202.02041028867285 257.97958971132715,243.4314575050762 216.5685424949238,397.97958971132715 62.02041028867286,356.5685424949238" stroke="#000000" /><polygon fill="#FF0000" opacity="0.7" points="190.7179676972449,190.7179676972449 329.2820323027551,270.7179676972449 249.2820323027551,409.2820323027551 110.7179676972449,329.2820323027551" stroke="#000000" /><polygon fill="#FF0000" opacity="0.7" points="280.0,186.8629150101524 393.1370849898476,300.0 280.0,413.1370849898476 166.8629150101524,300.0" stroke="#000000" /><polygon fill="#FF0000" opacity="0.7" points="369.28203230275506,190.7179676972449 449.2820323027551,329.28203230275506 310.71796769724494,409.2820323027551 230.7179676972449,270.71796769724494" stroke="#000000" /><polygon fill="#FF0000" opacity="0.7" points="456.5685424949238,202.02041028867285 497.97958971132715,356.5685424949238 343.4314575050762,397.97958971132715 302.02041028867285,243.4314575050762" stroke="#000000" /><polygon fill="#FF0000" opacity="0.7" points="540.0,220.0 540.0,380.0 380.0,380.0 380.0,220.0" stroke="#000000" /><polygon fill="#FF0000" opacity="0.7" points="617.9795897113271,243.43145750507617 576.5685424949238,397.9795897113271 422.0204102886729,356.5685424949238 463.4314575050762,202.02041028867288" stroke="#000000" /><polygon fill="#FF0000" opacity="0.7" points="689.282032302755,270.7179676972449 609.2820323027552,409.28203230275506 470.71796769724494,329.2820323027551 550.7179676972448,190.71796769724492" stroke="#000000" /><polygon fill="#FF0000" opacity="0.7" points="753.1370849898476,300.0 640.0,413.1370849898476 526.8629150101524,300.0 640.0,186.8629150101524" stroke="#000000" /><polygon fill="#FF0000" opacity="0.7" points="809.2820323027552,329.28203230275506 670.717967697245,409.2820323027551 590.7179676972448,270.71796769724494 729.282032302755,190.7179676972449" stroke="#000000" /><polygon fill="#FF0000" opacity="0.7" points="857.9795897113272,356.5685424949238 703.4314575050762,397.97958971132715 662.0204102886728,243.43145750507622 816.5685424949238,202.02041028867285" stroke="#000000" /></svg>