<?xml version="1.0" encoding="utf-8" ?>
<svg baseProfile="full" height="1000" version="1.1" width="1000" xmlns="http://www.w3.org/2000/svg" xmlns:ev="http://www.w3.org/2001/xml-events" xmlns:xlink="http://www.w3.org/1999/xlink"><defs /><polygon fill="blue" opacity="0.5" points="169.84011233337102,44.63969317068569 111.06158710412373,219.63969317068566 350.74181177086575,121.58178160006703" stroke="black" /><polygon fill="blue" opacity="0.5" points="111.06158710412373,219.63969317068566 350.74181177086575,121.58178160006703 291.96328654161846,296.581781600067" stroke="black" /><polygon fill="red" opacity="0.5" points="108.03671345838154,103.418218399933 49.25818822913425,278.418218399933 288.93841289587624,180.36030682931434" stroke="black" /><polygon fill="red" opacity="0.5" points="49.25818822913425,278.418218399933 288.93841289587624,180.36030682931434 230.15988766662898,355.3603068293143" stroke="black" /><polygon fill="green" opacity="0.5" points="169.84011233337102,44.63969317068569 49.25818822913425,278.418218399933 111.06158710412373,219.63969317068566" stroke="black" /><polygon fill="green" opacity="0.5" points="169.84011233337102,44.63969317068569 49.25818822913425,278.418218399933 108.03671345838154,103.418218399933" stroke="black" /><polygon fill="purple" opacity="0.5" points="288.93841289587624,180.36030682931434 291.96328654161846,296.581781600067 230.15988766662898,355.3603068293143" stroke="black" /><polygon fill="purple" opacity="0.5" points="288.93841289587624,180.36030682931434 291.96328654161846,296.581781600067 350.74181177086575,121.58178160006703" stroke="black" /><polygon fill="yellow" opacity="0.5" points="108.03671345838154,103.418218399933 350.74181177086575,121.58178160006703 169.84011233337102,44.63969317068569" stroke="black" /><polygon fill="yellow" opacity="0.5" points="108.03671345838154,103.418218399933 350.74181177086575,121.58178160006703 288.93841289587624,180.36030682931434" stroke="black" /><polygon fill="white" opacity="0.5" points="111.06158710412373,219.63969317068566 49.25818822913425,278.418218399933 230.15988766662898,355.3603068293143" stroke="black" /><polygon fill="white" opacity="0.5" points="111.06158710412373,219.63969317068566 291.96328654161846,296.581781600067 230.15988766662898,355.3603068293143" stroke="black" /><polygon fill="blue" opacity="0.5" points="266.8283579238274,63.6442742228615 218.17068435282363,225.3319278500164 432.5411758786337,126.01039857897983" stroke="black" /><polygon fill="blue" opacity="0.5" points="218.17068435282363,225.3319278500164 432.5411758786337,126.01039857897983 383.8835023076299,287.6980522061347" stroke="black" /><polygon fill="red" opacity="0.5" points="216.11649769237007,112.30194779386528 167.4588241213663,273.98960142102015 381.8293156471764,174.6680721499836" stroke="black" /><polygon fill="red" opacity="0.5" points="167.4588241213663,273.98960142102015 381.8293156471764,174.6680721499836 333.1716420761726,336.3557257771385" stroke="black" /><polygon fill="green" opacity="0.5" points="266.8283579238274,63.6442742228615 167.4588241213663,273.98960142102015 218.17068435282363,225.3319278500164" stroke="black" /><polygon fill="green" opacity="0.5" points="266.8283579238274,63.6442742228615 167.4588241213663,273.98960142102015 216.11649769237007,112.30194779386528" stroke="black" /><polygon fill="purple" opacity="0.5" points="381.8293156471764,174.6680721499836 383.8835023076299,287.6980522061347 333.1716420761726,336.3557257771385" stroke="black" /><polygon fill="purple" opacity="0.5" points="381.8293156471764,174.6680721499836 383.8835023076299,287.6980522061347 432.5411758786337,126.01039857897983" stroke="black" /><polygon fill="yellow" opacity="0.5" points="216.11649769237007,112.30194779386528 432.5411758786337,126.01039857897983 266.8283579238274,63.6442742228615" stroke="black" /><polygon fill="yellow" opacity="0.5" points="216.11649769237007,112.30194779386528 432.5411758786337,126.01039857897983 381.8293156471764,174.6680721499836" stroke="black" /><polygon fill="white" opacity="0.5" points="218.17068435282363,225.3319278500164 167.4588241213663,273.98960142102015 333.1716420761726,336.3557257771385" stroke="black" /><polygon fill="white" opacity="0.5" points="218.17068435282363,225.3319278500164 383.8835023076299,287.6980522061347 333.1716420761726,336.3557257771385" stroke="black" /><polygon fill="blue" opacity="0.5" points="414.6410161513775,63.39745962155612 345.3589838486224,163.39745962155615 534.6410161513776,167.32050807568874" stroke="black" /><polygon fill="blue" opacity="0.5" points="345.3589838486224,163.39745962155615 534.6410161513776,167.32050807568874 465.3589838486225,267.32050807568874" stroke="black" /><polygon fill="red" opacity="0.5" points="334.6410161513775,132.67949192431124 265.3589838486224,232.67949192431126 454.6410161513776,236.60254037844385" stroke="black" /><polygon fill="red" opacity="0.5" points="265.3589838486224,232.67949192431126 454.6410161513776,236.60254037844385 385.3589838486225,336.6025403784439" stroke="black" /><polygon fill="green" opacity="0.5" points="414.6410161513775,63.39745962155612 265.3589838486224,232.67949192431126 345.3589838486224,163.39745962155615" stroke="black" /><polygon fill="green" opacity="0.5" points="414.6410161513775,63.39745962155612 265.3589838486224,232.67949192431126 334.6410161513775,132.67949192431124" stroke="black" /><polygon fill="purple" opacity="0.5" points="454.6410161513776,236.60254037844385 465.3589838486225,267.32050807568874 385.3589838486225,336.6025403784439" stroke="black" /><polygon fill="purple" opacity="0.5" points="454.6410161513776,236.60254037844385 465.3589838486225,267.32050807568874 534.6410161513776,167.32050807568874" stroke="black" /><polygon fill="yellow" opacity="0.5" points="334.6410161513775,132.67949192431124 534.6410161513776,167.32050807568874 414.6410161513775,63.39745962155612" stroke="black" /><polygon fill="yellow" opacity="0.5" points="334.6410161513775,132.67949192431124 534.6410161513776,167.32050807568874 454.6410161513776,236.60254037844385" stroke="black" /><polygon fill="white" opacity="0.5" points="345.3589838486224,163.39745962155615 265.3589838486224,232.67949192431126 385.3589838486225,336.6025403784439" stroke="black" /><polygon fill="white" opacity="0.5" points="345.3589838486224,163.39745962155615 465.3589838486225,267.32050807568874 385.3589838486225,336.6025403784439" stroke="black" /><polygon fill="blue" opacity="0.5" points="541.9446128613513,88.66324574791315 472.4549916744875,126.27736955678029 620.3821804792238,204.23300925635593" stroke="black" /><polygon fill="blue" opacity="0.5" points="472.4549916744875,126.27736955678029 620.3821804792238,204.23300925635593 550.8925592923601,241.84713306522306" stroke="black" /><polygon fill="red" opacity="0.5" points="449.1074407076399,158.15286693477694 379.61781952077615,195.76699074364407 527.5450083255125,273.7226304432197" stroke="black" /><polygon fill="red" opacity="0.5" points="379.61781952077615,195.76699074364407 527.5450083255125,273.7226304432197 458.05538713864877,311.33675425208685" stroke="black" /><polygon fill="green" opacity="0.5" points="541.9446128613513,88.66324574791315 379.61781952077615,195.76699074364407 472.4549916744875,126.27736955678029" stroke="black" /><polygon fill="green" opacity="0.5" points="541.9446128613513,88.66324574791315 379.61781952077615,195.76699074364407 449.1074407076399,158.15286693477694" stroke="black" /><polygon fill="purple" opacity="0.5" points="527.5450083255125,273.7226304432197 550.8925592923601,241.84713306522306 458.05538713864877,311.33675425208685" stroke="black" /><polygon fill="purple" opacity="0.5" points="527.5450083255125,273.7226304432197 550.8925592923601,241.84713306522306 620.3821804792238,204.23300925635593" stroke="black" /><polygon fill="yellow" opacity="0.5" points="449.1074407076399,158.15286693477694 620.3821804792238,204.23300925635593 541.9446128613513,88.66324574791315" stroke="black" /><polygon fill="yellow" opacity="0.5" points="449.1074407076399,158.15286693477694 620.3821804792238,204.23300925635593 527.5450083255125,273.7226304432197" stroke="black" /><polygon fill="white" opacity="0.5" points="472.4549916744875,126.27736955678029 379.61781952077615,195.76699074364407 458.05538713864877,311.33675425208685" stroke="black" /><polygon fill="white" opacity="0.5" points="472.4549916744875,126.27736955678029 550.8925592923601,241.84713306522306 458.05538713864877,311.33675425208685" stroke="black" /><polygon fill="blue" opacity="0.5" points="652.8333543322259,123.98723386566067 594.3376796013165,113.28765657968587 699.4820982948471,228.21666868940468" stroke="black" /><polygon fill="blue" opacity="0.5" points="594.3376796013165,113.28765657968587 699.4820982948471,228.21666868940468 640.9864235639377,217.5170914034299" stroke="black" /><polygon fill="red" opacity="0.5" points="559.0135764360623,182.4829085965701 500.5179017051529,171.78333131059532 605.6623203986835,286.71234342031414" stroke="black" /><polygon fill="red" opacity="0.5" points="500.5179017051529,171.78333131059532 605.6623203986835,286.71234342031414 547.1666456677741,276.01276613433936" stroke="black" /><polygon fill="green" opacity="0.5" points="652.8333543322259,123.98723386566067 500.5179017051529,171.78333131059532 594.3376796013165,113.28765657968587" stroke="black" /><polygon fill="green" opacity="0.5" points="652.8333543322259,123.98723386566067 500.5179017051529,171.78333131059532 559.0135764360623,182.4829085965701" stroke="black" /><polygon fill="purple" opacity="0.5" points="605.6623203986835,286.71234342031414 640.9864235639377,217.5170914034299 547.1666456677741,276.01276613433936" stroke="black" /><polygon fill="purple" opacity="0.5" points="605.6623203986835,286.71234342031414 640.9864235639377,217.5170914034299 699.4820982948471,228.21666868940468" stroke="black" /><polygon fill="yellow" opacity="0.5" points="559.0135764360623,182.4829085965701 699.4820982948471,228.21666868940468 652.8333543322259,123.98723386566067" stroke="black" /><polygon fill="yellow" opacity="0.5" points="559.0135764360623,182.4829085965701 699.4820982948471,228.21666868940468 605.6623203986835,286.71234342031414" stroke="black" /><polygon fill="white" opacity="0.5" points="594.3376796013165,113.28765657968587 500.5179017051529,171.78333131059532 547.1666456677741,276.01276613433936" stroke="black" /><polygon fill="white" opacity="0.5" points="594.3376796013165,113.28765657968587 640.9864235639377,217.5170914034299 547.1666456677741,276.01276613433936" stroke="black" /><polygon fill="blue" opacity="0.5" points="752.451905283833,157.92468245269447 709.150635094611,117.9727771688616 777.451905283833,238.72595264191645" stroke="black" /><polygon fill="blue" opacity="0.5" points="709.150635094611,117.9727771688616 777.451905283833,238.72595264191645 734.150635094611,198.77404735808358" stroke="black" /><polygon fill="red" opacity="0.5" points="665.849364905389,201.22595264191642 622.548094716167,161.27404735808355 690.849364905389,282.0272228311384" stroke="black" /><polygon fill="red" opacity="0.5" points="622.548094716167,161.27404735808355 690.849364905389,282.0272228311384 647.548094716167,242.07531754730553" stroke="black" /><polygon fill="green" opacity="0.5" points="752.451905283833,157.92468245269447 622.548094716167,161.27404735808355 709.150635094611,117.9727771688616" stroke="black" /><polygon fill="green" opacity="0.5" points="752.451905283833,157.92468245269447 622.548094716167,161.27404735808355 665.849364905389,201.22595264191642" stroke="black" /><polygon fill="purple" opacity="0.5" points="690.849364905389,282.0272228311384 734.150635094611,198.77404735808358 647.548094716167,242.07531754730553" stroke="black" /><polygon fill="purple" opacity="0.5" points="690.849364905389,282.0272228311384 734.150635094611,198.77404735808358 777.451905283833,238.72595264191645" stroke="black" /><polygon fill="yellow" opacity="0.5" points="665.849364905389,201.22595264191642 777.451905283833,238.72595264191645 752.451905283833,157.92468245269447" stroke="black" /><polygon fill="yellow" opacity="0.5" points="665.849364905389,201.22595264191642 777.451905283833,238.72595264191645 690.849364905389,282.0272228311384" stroke="black" /><polygon fill="white" opacity="0.5" points="709.150635094611,117.9727771688616 622.548094716167,161.27404735808355 647.548094716167,242.07531754730553" stroke="black" /><polygon fill="white" opacity="0.5" points="709.150635094611,117.9727771688616 734.150635094611,198.77404735808358 647.548094716167,242.07531754730553" stroke="black" /><polygon fill="blue" opacity="0.5" points="845.2394525479134,184.33545502649477 816.9551813004515,132.96474318105385 856.9551813004515,238.75098557148425" stroke="black" /><polygon fill="blue" opacity="0.5" points="816.9551813004515,132.96474318105385 856.9551813004515,238.75098557148425 828.6709100529896,187.3802737260433" stroke="black" /><polygon fill="red" opacity="0.5" points="771.3290899470104,212.6197262739567 743.0448186995485,161.24901442851575 783.0448186995485,267.03525681894615" stroke="black" /><polygon fill="red" opacity="0.5" points="743.0448186995485,161.24901442851575 783.0448186995485,267.03525681894615 754.7605474520866,215.66454497350523" stroke="black" /><polygon fill="green" opacity="0.5" points="845.2394525479134,184.33545502649477 743.0448186995485,161.24901442851575 816.9551813004515,132.96474318105385" stroke="black" /><polygon fill="green" opacity="0.5" points="845.2394525479134,184.33545502649477 743.0448186995485,161.24901442851575 771.3290899470104,212.6197262739567" stroke="black" /><polygon fill="purple" opacity="0.5" points="783.0448186995485,267.03525681894615 828.6709100529896,187.3802737260433 754.7605474520866,215.66454497350523" stroke="black" /><polygon fill="purple" opacity="0.5" points="783.0448186995485,267.03525681894615 828.6709100529896,187.3802737260433 856.9551813004515,238.75098557148425" stroke="black" /><polygon fill="yellow" opacity="0.5" points="771.3290899470104,212.6197262739567 856.9551813004515,238.75098557148425 845.2394525479134,184.33545502649477" stroke="black" /><polygon fill="yellow" opacity="0.5" points="771.3290899470104,212.6197262739567 856.9551813004515,238.75098557148425 783.0448186995485,267.03525681894615" stroke="black" /><polygon fill="white" opacity="0.5" points="816.9551813004515,132.96474318105385 743.0448186995485,161.24901442851575 754.7605474520866,215.66454497350523" stroke="black" /><polygon fill="white" opacity="0.5" points="816.9551813004515,132.96474318105385 828.6709100529896,187.3802737260433 754.7605474520866,215.66454497350523" stroke="black" /><polygon fill="blue" opacity="0.5" points="934.5045087742891,201.0590471436656 918.7115438879684,152.16494447430193 938.9979947024007,232.0420906393774" stroke="black" /><polygon fill="blue" opacity="0.5" points="918.7115438879684,152.16494447430193 938.9979947024007,232.0420906393774 923.20502981608,183.14798797001373" stroke="black" /><polygon fill="red" opacity="0.5" points="876.79497018392,216.85201202998627 861.0020052975993,167.9579093606226 881.2884561120316,247.83505552569807" stroke="black" /><polygon fill="red" opacity="0.5" points="861.0020052975993,167.9579093606226 881.2884561120316,247.83505552569807 865.4954912257109,198.9409528563344" stroke="black" /><polygon fill="green" opacity="0.5" points="934.5045087742891,201.0590471436656 861.0020052975993,167.9579093606226 918.7115438879684,152.16494447430193" stroke="black" /><polygon fill="green" opacity="0.5" points="934.5045087742891,201.0590471436656 861.0020052975993,167.9579093606226 876.79497018392,216.85201202998627" stroke="black" /><polygon fill="purple" opacity="0.5" points="881.2884561120316,247.83505552569807 923.20502981608,183.14798797001373 865.4954912257109,198.9409528563344" stroke="black" /><polygon fill="purple" opacity="0.5" points="881.2884561120316,247.83505552569807 923.20502981608,183.14798797001373 938.9979947024007,232.0420906393774" stroke="black" /><polygon fill="yellow" opacity="0.5" points="876.79497018392,216.85201202998627 938.9979947024007,232.0420906393774 934.5045087742891,201.0590471436656" stroke="black" /><polygon fill="yellow" opacity="0.5" points="876.79497018392,216.85201202998627 938.9979947024007,232.0420906393774 881.2884561120316,247.83505552569807" stroke="black" /><polygon fill="white" opacity="0.5" points="918.7115438879684,152.16494447430193 861.0020052975993,167.9579093606226 865.4954912257109,198.9409528563344" stroke="black" /><polygon fill="white" opacity="0.5" points="918.7115438879684,152.16494447430193 923.20502981608,183.14798797001373 865.4954912257109,198.9409528563344" stroke="black" /><polygon fill="blue" opacity="0.5" points="1022.5132827013599,208.29052576711638 1015.6728798348465,171.29218672318757 1023.7194302856418,221.86741041029907" stroke="black" /><polygon fill="blue" opacity="0.5" points="1015.6728798348465,171.29218672318757 1023.7194302856418,221.86741041029907 1016.8790274191284,184.86907136637024" stroke="black" /><polygon fill="red" opacity="0.5" points="983.1209725808716,215.13092863362976 976.2805697143582,178.13258958970093 984.3271201651535,228.70781327681243" stroke="black" /><polygon fill="red" opacity="0.5" points="976.2805697143582,178.13258958970093 984.3271201651535,228.70781327681243 977.4867172986401,191.70947423288362" stroke="black" /><polygon fill="green" opacity="0.5" points="1022.5132827013599,208.29052576711638 976.2805697143582,178.13258958970093 1015.6728798348465,171.29218672318757" stroke="black" /><polygon fill="green" opacity="0.5" points="1022.5132827013599,208.29052576711638 976.2805697143582,178.13258958970093 983.1209725808716,215.13092863362976" stroke="black" /><polygon fill="purple" opacity="0.5" points="984.3271201651535,228.70781327681243 1016.8790274191284,184.86907136637024 977.4867172986401,191.70947423288362" stroke="black" /><polygon fill="purple" opacity="0.5" points="984.3271201651535,228.70781327681243 1016.8790274191284,184.86907136637024 1023.7194302856418,221.86741041029907" stroke="black" /><polygon fill="yellow" opacity="0.5" points="983.1209725808716,215.13092863362976 1023.7194302856418,221.86741041029907 1022.5132827013599,208.29052576711638" stroke="black" /><polygon fill="yellow" opacity="0.5" points="983.1209725808716,215.13092863362976 1023.7194302856418,221.86741041029907 984.3271201651535,228.70781327681243" stroke="black" /><polygon fill="white" opacity="0.5" points="1015.6728798348465,171.29218672318757 976.2805697143582,178.13258958970093 977.4867172986401,191.70947423288362" stroke="black" /><polygon fill="white" opacity="0.5" points="1015.6728798348465,171.29218672318757 1016.8790274191284,184.86907136637024 977.4867172986401,191.70947423288362" stroke="black" /></svg>