<?xml version="1.0" encoding="utf-8" ?>
<svg baseProfile="full" height="600" version="1.1" width="800" xmlns="http://www.w3.org/2000/svg" xmlns:ev="http://www.w3.org/2001/xml-events" xmlns:xlink="http://www.w3.org/1999/xlink"><defs /><polygon fill="blue" opacity="0.5" points="73.99264893298991,124.73446070385567 73.99264893298991,314.94576396288636 264.2039521920206,143.83276126636093" stroke="black" /><polygon fill="blue" opacity="0.5" points="73.99264893298991,314.94576396288636 264.2039521920206,143.83276126636093 264.2039521920206,334.0440645253916" stroke="black" /><polygon fill="red" opacity="0.5" points="135.7960478079794,65.95593547460837 135.7960478079794,256.16723873363907 326.00735106701006,85.05423603711363" stroke="black" /><polygon fill="red" opacity="0.5" points="135.7960478079794,256.16723873363907 326.00735106701006,85.05423603711363 326.00735106701006,275.2655392961443" stroke="black" /><polygon fill="green" opacity="0.5" points="73.99264893298991,124.73446070385567 135.7960478079794,256.16723873363907 73.99264893298991,314.94576396288636" stroke="black" /><polygon fill="green" opacity="0.5" points="73.99264893298991,124.73446070385567 135.7960478079794,256.16723873363907 135.7960478079794,65.95593547460837" stroke="black" /><polygon fill="purple" opacity="0.5" points="326.00735106701006,85.05423603711363 264.2039521920206,334.0440645253916 326.00735106701006,275.2655392961443" stroke="black" /><polygon fill="purple" opacity="0.5" points="326.00735106701006,85.05423603711363 264.2039521920206,334.0440645253916 264.2039521920206,143.83276126636093" stroke="black" /><polygon fill="yellow" opacity="0.5" points="135.7960478079794,65.95593547460837 264.2039521920206,143.83276126636093 73.99264893298991,124.73446070385567" stroke="black" /><polygon fill="yellow" opacity="0.5" points="135.7960478079794,65.95593547460837 264.2039521920206,143.83276126636093 326.00735106701006,85.05423603711363" stroke="black" /><polygon fill="white" opacity="0.5" points="73.99264893298991,314.94576396288636 135.7960478079794,256.16723873363907 326.00735106701006,275.2655392961443" stroke="black" /><polygon fill="white" opacity="0.5" points="73.99264893298991,314.94576396288636 264.2039521920206,334.0440645253916 326.00735106701006,275.2655392961443" stroke="black" /></svg>