<?xml version="1.0" encoding="utf-8" ?>
<svg baseProfile="full" height="600" version="1.1" width="800" xmlns="http://www.w3.org/2000/svg" xmlns:ev="http://www.w3.org/2001/xml-events" xmlns:xlink="http://www.w3.org/1999/xlink"><defs /><polygon fill="blue" opacity="0.5" points="169.84011233337102,44.63969317068569 111.06158710412373,219.63969317068566 350.74181177086575,121.58178160006703" stroke="black" /><polygon fill="blue" opacity="0.5" points="111.06158710412373,219.63969317068566 350.74181177086575,121.58178160006703 291.96328654161846,296.581781600067" stroke="black" /><polygon fill="red" opacity="0.5" points="108.03671345838154,103.418218399933 49.25818822913425,278.418218399933 288.93841289587624,180.36030682931434" stroke="black" /><polygon fill="red" opacity="0.5" points="49.25818822913425,278.418218399933 288.93841289587624,180.36030682931434 230.15988766662898,355.3603068293143" stroke="black" /><polygon fill="green" opacity="0.5" points="169.84011233337102,44.63969317068569 49.25818822913425,278.418218399933 111.06158710412373,219.63969317068566" stroke="black" /><polygon fill="green" opacity="0.5" points="169.84011233337102,44.63969317068569 49.25818822913425,278.418218399933 108.03671345838154,103.418218399933" stroke="black" /><polygon fill="purple" opacity="0.5" points="288.93841289587624,180.36030682931434 291.96328654161846,296.581781600067 230.15988766662898,355.3603068293143" stroke="black" /><polygon fill="purple" opacity="0.5" points="288.93841289587624,180.36030682931434 291.96328654161846,296.581781600067 350.74181177086575,121.58178160006703" stroke="black" /><polygon fill="yellow" opacity="0.5" points="108.03671345838154,103.418218399933 350.74181177086575,121.58178160006703 169.84011233337102,44.63969317068569" stroke="black" /><polygon fill="yellow" opacity="0.5" points="108.03671345838154,103.418218399933 350.74181177086575,121.58178160006703 288.93841289587624,180.36030682931434" stroke="black" /><polygon fill="white" opacity="0.5" points="111.06158710412373,219.63969317068566 49.25818822913425,278.418218399933 230.15988766662898,355.3603068293143" stroke="black" /><polygon fill="white" opacity="0.5" points="111.06158710412373,219.63969317068566 291.96328654161846,296.581781600067 230.15988766662898,355.3603068293143" stroke="black" /></svg>