<?xml version="1.0" encoding="utf-8" ?>
<svg baseProfile="full" height="600" version="1.1" width="800" xmlns="http://www.w3.org/2000/svg" xmlns:ev="http://www.w3.org/2001/xml-events" xmlns:xlink="http://www.w3.org/1999/xlink"><defs /><polygon fill="blue" opacity="0.7" points="65.0,240.5 65.0,300.0 107.5,300.0" stroke="black" /><polygon fill="red" opacity="0.7" points="107.5,300.0 150.0,274.5 192.5,300.0" stroke="black" /><polygon fill="green" opacity="0.7" points="192.5,300.0 235.0,240.5 235.0,300.0" stroke="black" /><polygon fill="purple" opacity="0.7" points="235.0,300.0 150.0,359.5 65.0,300.0" stroke="black" /><polygon fill="blue" opacity="0.7" points="257.4352447854375,214.87822173508928 215.0,239.3782217350893 232.5,269.6891108675446" stroke="black" /><polygon fill="red" opacity="0.7" points="232.5,269.6891108675446 268.1865334794732,289.5 267.5,330.3108891324554" stroke="black" /><polygon fill="green" opacity="0.7" points="267.5,330.3108891324554 327.4352447854375,336.1217782649107 285.0,360.6217782649107" stroke="black" /><polygon fill="purple" opacity="0.7" points="285.0,360.6217782649107 207.56475521456252,324.5 215.0,239.3782217350893" stroke="black" /><polygon fill="blue" opacity="0.7" points="410.8419780457009,271.6186027918559 377.5,252.3686027918559 363.75,276.18430139592795" stroke="black" /><polygon fill="red" opacity="0.7" points="363.75,276.18430139592795 364.2894191624432,308.25 336.25,323.81569860407205" stroke="black" /><polygon fill="green" opacity="0.7" points="336.25,323.81569860407205 355.8419780457009,366.8813972081441 322.5,347.6313972081441" stroke="black" /><polygon fill="purple" opacity="0.7" points="322.5,347.6313972081441 316.6580219542991,280.75 377.5,252.3686027918559" stroke="black" /><polygon fill="blue" opacity="0.7" points="490.0,328.0 490.0,300.0 470.0,300.0" stroke="black" /><polygon fill="red" opacity="0.7" points="470.0,300.0 450.0,312.0 430.0,300.0" stroke="black" /><polygon fill="green" opacity="0.7" points="430.0,300.0 410.0,328.0 410.0,300.0" stroke="black" /><polygon fill="purple" opacity="0.7" points="410.0,300.0 450.0,272.0 490.0,300.0" stroke="black" /><polygon fill="blue" opacity="0.7" points="547.3445554337724,330.40063509461095 562.5,321.65063509461095 556.25,310.8253175473055" stroke="black" /><polygon fill="red" opacity="0.7" points="556.25,310.8253175473055 543.5048094716167,303.75 543.75,289.1746824526945" stroke="black" /><polygon fill="green" opacity="0.7" points="543.75,289.1746824526945 522.3445554337724,287.09936490538905 537.5,278.34936490538905" stroke="black" /><polygon fill="purple" opacity="0.7" points="537.5,278.34936490538905 565.1554445662276,291.25 562.5,321.65063509461095" stroke="black" /></svg>